<?xml version="1.0" standalone="no"?>
<!DOCTYPE svg PUBLIC "-//W3C//DTD SVG 20010904//EN"
 "http://www.w3.org/TR/2001/REC-SVG-20010904/DTD/svg10.dtd">
<svg version="1.0" xmlns="http://www.w3.org/2000/svg"
 width="844.000000pt" height="151.000000pt" viewBox="0 0 844.000000 151.000000"
 preserveAspectRatio="xMidYMid meet">
<metadata>
Created by potrace 1.16, written by Peter Selinger 2001-2019
</metadata>
<g transform="translate(0.000000,151.000000) scale(0.100000,-0.100000)"
fill="#ffffff" stroke="none">
<path d="M4925 1355 c-22 -8 -41 -15 -42 -15 -11 -1 -33 -67 -33 -99 0 -112
159 -160 234 -70 36 42 36 106 1 148 -14 16 -34 32 -43 35 -50 14 -81 14 -117
1z M3642 783 l3 -558 113 -3 112 -3 0 561 0 560 -115 0 -115 0 2 -557z M4177
1224 c-4 -4 -7 -51 -7 -105 l0 -98 -62 -3 -63 -3 -3 -82 -3 -83 66 0 65 0 0
-208 c0 -239 9 -289 66 -352 54 -60 126 -83 244 -78 84 3 102 8 156 37 l61 32
-30 77 c-17 42 -32 79 -34 81 -1 2 -11 -3 -20 -11 -28 -24 -91 -41 -128 -34
-19 4 -43 18 -55 33 -19 24 -20 39 -20 224 l0 199 125 0 125 0 0 85 0 85 -125
0 -124 0 -3 103 -3 102 -111 3 c-60 1 -113 -1 -117 -4z M1865 1030 c-102 -15
-252 -70 -270 -100 -7 -11 74 -143 84 -137 35 19 112 50 147 58 65 17 212 7
247 -16 34 -22 57 -64 57 -104 l0 -29 -187 -4 c-182 -3 -190 -4 -251 -32 -136
-63 -187 -186 -128 -312 28 -59 81 -101 164 -129 113 -37 322 -6 378 56 26 28
34 23 34 -21 l0 -40 116 0 115 0 -3 288 c-3 286 -3 287 -29 342 -15 30 -42 69
-60 87 -85 80 -250 117 -414 93z m267 -510 c-10 -96 -88 -150 -220 -150 -117
0 -179 76 -118 147 28 33 78 41 236 39 l105 -1 -3 -35z M5775 1033 c-60 -8
-127 -36 -170 -68 l-44 -34 -3 42 -3 42 -115 0 -115 0 0 -395 0 -395 114 0
115 0 1 235 c1 193 4 240 17 265 35 67 105 105 192 106 78 1 140 -38 165 -104
7 -17 11 -122 11 -268 l0 -239 115 0 115 0 0 230 c0 209 2 234 20 269 40 79
119 118 217 108 68 -7 109 -32 133 -82 18 -38 20 -63 20 -283 l0 -243 118 3
117 3 -2 265 c-2 146 -6 281 -9 299 -9 52 -47 121 -91 163 -125 120 -390 109
-517 -21 l-39 -39 -48 48 c-30 30 -68 56 -101 68 -55 21 -161 33 -213 25z
M7315 1030 c-124 -17 -244 -84 -300 -168 -51 -77 -68 -147 -63 -262 4 -90 9
-113 32 -160 77 -152 218 -229 427 -231 139 -2 238 29 328 101 l39 31 -66 64
-65 64 -24 -19 c-66 -52 -204 -75 -296 -49 -59 16 -137 95 -137 139 0 7 105
10 325 10 l325 0 0 53 c-1 224 -135 386 -354 428 -55 10 -84 10 -171 -1z m207
-199 c47 -30 69 -61 82 -113 l6 -28 -210 0 c-229 0 -222 -2 -199 57 27 73 99
112 205 113 61 0 76 -4 116 -29z M540 1013 c0 -8 175 -397 274 -611 42 -90 76
-168 76 -173 0 -5 58 -9 133 -9 l132 0 32 78 c17 42 73 169 123 282 107 240
190 430 190 436 0 2 -53 4 -119 4 l-118 0 -60 -142 c-33 -79 -84 -205 -114
-280 -30 -76 -56 -137 -59 -138 -3 0 -17 30 -32 68 -14 37 -63 150 -107 252
-44 102 -85 197 -90 213 l-10 27 -125 0 c-70 0 -126 -3 -126 -7z M2562 733 c3
-286 3 -288 29 -344 55 -117 140 -169 285 -177 110 -5 178 12 253 63 28 19 53
35 56 35 3 0 5 -20 5 -45 l0 -45 115 0 115 0 0 400 0 400 -120 0 -120 0 0
-222 c0 -132 -5 -239 -11 -263 -38 -137 -254 -176 -340 -61 -24 30 -24 36 -27
289 l-3 257 -120 0 -120 0 3 -287z M4867 1013 c-4 -3 -7 -183 -7 -400 l0 -393
115 0 115 0 0 400 0 400 -108 0 c-60 0 -112 -3 -115 -7z"/>
</g>
</svg>
